# xmcd
#
# Track frame offsets:
#	150
#	31295
#	75547
#	117845
#	157580
#	194527
#	237140
#	274072
#
# Disc length: 4163 seconds
#
# Revision: 0
# Processed by: cddbd v1.4PL0 Copyright (c) Steve Scherf et al.
# Submitted via: EasyCDDAExtractor 4.6.0.1
#
DISCID=58104108
DTITLE=Flying Rhino - Velocity
DYEAR=1900
DGENRE=
TTITLE0=sleeper
TTITLE1=atmos
TTITLE2=slinky wizard
TTITLE3=stoop and ridget
TTITLE4=bumbling loons
TTITLE5=kuro
TTITLE6=venom v bus
TTITLE7=bus
EXTD=
EXTT0=
EXTT1=
EXTT2=
EXTT3=
EXTT4=
EXTT5=
EXTT6=
EXTT7=
PLAYORDER=
